<?xml version="1.0" encoding="UTF-8" standalone="no"?>
<!DOCTYPE svg PUBLIC "-//W3C//DTD SVG 1.1//EN" "http://www.w3.org/Graphics/SVG/1.1/DTD/svg11.dtd">
<svg width="100%" height="100%" viewBox="0 0 232 208" version="1.1" xmlns="http://www.w3.org/2000/svg" xmlns:xlink="http://www.w3.org/1999/xlink" xml:space="preserve" xmlns:serif="http://www.serif.com/" style="fill-rule:evenodd;clip-rule:evenodd;stroke-linejoin:round;stroke-miterlimit:1.41421;">
    <g id="g10" transform="matrix(-1.25,0,0,1.25,1011.28,-672.037)">
        <g id="g20">
            <path id="path34" d="M680.271,682.08L715.463,682.08L715.463,665.669L684.243,665.669C681.733,665.669 679.249,663.615 678.732,661.102L661.886,579.21C661.368,576.698 663.006,574.644 665.504,574.644L715.463,574.644L715.463,558.233L654.728,558.233C646.488,558.233 641.147,564.976 642.843,573.223L662.176,667.09C663.875,675.335 672.026,682.08 680.272,682.08M715.463,682.08L776.886,682.08C785.129,682.08 790.467,675.329 788.772,667.09L769.439,573.223C767.743,564.983 759.582,558.233 751.343,558.233L715.463,558.233L715.463,574.644L746.684,574.644C749.184,574.644 751.682,576.707 752.197,579.21L769.042,661.102C769.555,663.604 767.932,665.669 765.422,665.669L715.463,665.669L715.463,682.08Z" style="fill:rgb(35,31,32);"/>
        </g>
    </g>
</svg>
